<mxfile host="app.diagrams.net" agent="Mozilla/5.0 (X11; Ubuntu; Linux x86_64; rv:138.0) Gecko/20100101 Firefox/138.0" version="27.0.9">
  <diagram name="Page-1" id="POKbRjyyL2bzoQBOzGFW">
    <mxGraphModel dx="1305" dy="795" grid="1" gridSize="10" guides="1" tooltips="1" connect="1" arrows="1" fold="1" page="1" pageScale="1" pageWidth="850" pageHeight="1100" math="0" shadow="0">
      <root>
        <mxCell id="0" />
        <mxCell id="1" parent="0" />
        <mxCell id="3dY2C-kk_1Szfm6JkUA_-14" value="&lt;b&gt;Behavior Trait&lt;/b&gt;" style="rounded=0;whiteSpace=wrap;html=1;" parent="1" vertex="1">
          <mxGeometry x="190" y="60" width="140" height="60" as="geometry" />
        </mxCell>
        <mxCell id="3dY2C-kk_1Szfm6JkUA_-16" value="&lt;b&gt;Forward&lt;/b&gt;" style="shape=step;perimeter=stepPerimeter;whiteSpace=wrap;html=1;fixedSize=1;" parent="1" vertex="1">
          <mxGeometry x="140" y="270" width="90" height="30" as="geometry" />
        </mxCell>
        <mxCell id="3dY2C-kk_1Szfm6JkUA_-17" value="&lt;b&gt;Backward&lt;/b&gt;" style="shape=step;perimeter=stepPerimeter;whiteSpace=wrap;html=1;fixedSize=1;" parent="1" vertex="1">
          <mxGeometry x="282.5" y="270" width="87.5" height="30" as="geometry" />
        </mxCell>
        <mxCell id="YpAaJxjV6s102Lq9Llkv-15" value="&lt;b&gt;Behavior Trait&lt;/b&gt;" style="rounded=0;whiteSpace=wrap;html=1;" parent="1" vertex="1">
          <mxGeometry x="190" y="60" width="140" height="60" as="geometry" />
        </mxCell>
        <mxCell id="hCSqvV3AbPPHzn8vGVyA-14" value="&lt;b&gt;Behavior Trait&lt;/b&gt;" style="rounded=0;whiteSpace=wrap;html=1;" vertex="1" parent="1">
          <mxGeometry x="190" y="60" width="140" height="60" as="geometry" />
        </mxCell>
        <mxCell id="hCSqvV3AbPPHzn8vGVyA-59" style="edgeStyle=orthogonalEdgeStyle;rounded=0;orthogonalLoop=1;jettySize=auto;html=1;exitX=0.5;exitY=1;exitDx=0;exitDy=0;" edge="1" parent="1" source="hCSqvV3AbPPHzn8vGVyA-33" target="hCSqvV3AbPPHzn8vGVyA-56">
          <mxGeometry relative="1" as="geometry" />
        </mxCell>
        <mxCell id="hCSqvV3AbPPHzn8vGVyA-60" style="edgeStyle=orthogonalEdgeStyle;rounded=0;orthogonalLoop=1;jettySize=auto;html=1;exitX=0;exitY=0.5;exitDx=0;exitDy=0;entryX=0;entryY=0.5;entryDx=0;entryDy=0;" edge="1" parent="1" source="hCSqvV3AbPPHzn8vGVyA-33" target="hCSqvV3AbPPHzn8vGVyA-38">
          <mxGeometry relative="1" as="geometry" />
        </mxCell>
        <mxCell id="hCSqvV3AbPPHzn8vGVyA-33" value="&lt;b&gt;Behavior Trait&lt;/b&gt;" style="rounded=0;whiteSpace=wrap;html=1;" vertex="1" parent="1">
          <mxGeometry x="190" y="60" width="140" height="60" as="geometry" />
        </mxCell>
        <mxCell id="hCSqvV3AbPPHzn8vGVyA-38" value="&lt;b&gt;Extension&lt;/b&gt;" style="rounded=0;whiteSpace=wrap;html=1;" vertex="1" parent="1">
          <mxGeometry x="110" y="360" width="140" height="60" as="geometry" />
        </mxCell>
        <mxCell id="hCSqvV3AbPPHzn8vGVyA-41" style="edgeStyle=orthogonalEdgeStyle;rounded=0;orthogonalLoop=1;jettySize=auto;html=1;entryX=1;entryY=0.5;entryDx=0;entryDy=0;" edge="1" parent="1" source="hCSqvV3AbPPHzn8vGVyA-40" target="hCSqvV3AbPPHzn8vGVyA-38">
          <mxGeometry relative="1" as="geometry" />
        </mxCell>
        <mxCell id="hCSqvV3AbPPHzn8vGVyA-40" value="User" style="html=1;verticalLabelPosition=bottom;align=center;labelBackgroundColor=#ffffff;verticalAlign=top;strokeWidth=2;strokeColor=#0080F0;shadow=0;dashed=0;shape=mxgraph.ios7.icons.user;" vertex="1" parent="1">
          <mxGeometry x="330" y="365" width="50" height="50" as="geometry" />
        </mxCell>
        <mxCell id="hCSqvV3AbPPHzn8vGVyA-44" style="edgeStyle=orthogonalEdgeStyle;rounded=0;orthogonalLoop=1;jettySize=auto;html=1;exitX=0;exitY=0.5;exitDx=0;exitDy=0;entryX=1;entryY=0.5;entryDx=0;entryDy=0;strokeWidth=2;" edge="1" parent="1" source="hCSqvV3AbPPHzn8vGVyA-42" target="hCSqvV3AbPPHzn8vGVyA-33">
          <mxGeometry relative="1" as="geometry" />
        </mxCell>
        <mxCell id="hCSqvV3AbPPHzn8vGVyA-42" value="&lt;b&gt;Node Instance&lt;/b&gt;" style="rounded=0;whiteSpace=wrap;html=1;" vertex="1" parent="1">
          <mxGeometry x="400" y="60" width="140" height="60" as="geometry" />
        </mxCell>
        <mxCell id="hCSqvV3AbPPHzn8vGVyA-46" style="edgeStyle=orthogonalEdgeStyle;rounded=0;orthogonalLoop=1;jettySize=auto;html=1;exitX=0;exitY=0.5;exitDx=0;exitDy=0;entryX=1;entryY=0.5;entryDx=0;entryDy=0;strokeWidth=2;" edge="1" parent="1" source="hCSqvV3AbPPHzn8vGVyA-45" target="hCSqvV3AbPPHzn8vGVyA-42">
          <mxGeometry relative="1" as="geometry" />
        </mxCell>
        <mxCell id="hCSqvV3AbPPHzn8vGVyA-45" value="&lt;b&gt;Node Vector&lt;/b&gt;" style="rounded=0;whiteSpace=wrap;html=1;" vertex="1" parent="1">
          <mxGeometry x="600" y="60" width="140" height="60" as="geometry" />
        </mxCell>
        <mxCell id="hCSqvV3AbPPHzn8vGVyA-48" style="edgeStyle=orthogonalEdgeStyle;rounded=0;orthogonalLoop=1;jettySize=auto;html=1;exitX=0.5;exitY=0;exitDx=0;exitDy=0;entryX=0.5;entryY=1;entryDx=0;entryDy=0;strokeWidth=2;" edge="1" parent="1" source="hCSqvV3AbPPHzn8vGVyA-47" target="hCSqvV3AbPPHzn8vGVyA-45">
          <mxGeometry relative="1" as="geometry" />
        </mxCell>
        <mxCell id="hCSqvV3AbPPHzn8vGVyA-63" style="edgeStyle=orthogonalEdgeStyle;rounded=0;orthogonalLoop=1;jettySize=auto;html=1;exitX=0.5;exitY=1;exitDx=0;exitDy=0;entryX=0.5;entryY=0;entryDx=0;entryDy=0;" edge="1" parent="1" source="hCSqvV3AbPPHzn8vGVyA-47" target="hCSqvV3AbPPHzn8vGVyA-62">
          <mxGeometry relative="1" as="geometry" />
        </mxCell>
        <mxCell id="hCSqvV3AbPPHzn8vGVyA-47" value="&lt;b&gt;Expression Graph&lt;/b&gt;" style="rounded=0;whiteSpace=wrap;html=1;" vertex="1" parent="1">
          <mxGeometry x="600" y="180" width="140" height="60" as="geometry" />
        </mxCell>
        <mxCell id="hCSqvV3AbPPHzn8vGVyA-57" style="edgeStyle=orthogonalEdgeStyle;rounded=0;orthogonalLoop=1;jettySize=auto;html=1;exitX=0.5;exitY=1;exitDx=0;exitDy=0;entryX=0.5;entryY=0;entryDx=0;entryDy=0;" edge="1" parent="1" source="hCSqvV3AbPPHzn8vGVyA-56" target="3dY2C-kk_1Szfm6JkUA_-16">
          <mxGeometry relative="1" as="geometry" />
        </mxCell>
        <mxCell id="hCSqvV3AbPPHzn8vGVyA-58" style="edgeStyle=orthogonalEdgeStyle;rounded=0;orthogonalLoop=1;jettySize=auto;html=1;exitX=0.5;exitY=1;exitDx=0;exitDy=0;entryX=0.5;entryY=0;entryDx=0;entryDy=0;" edge="1" parent="1" source="hCSqvV3AbPPHzn8vGVyA-56" target="3dY2C-kk_1Szfm6JkUA_-17">
          <mxGeometry relative="1" as="geometry" />
        </mxCell>
        <mxCell id="hCSqvV3AbPPHzn8vGVyA-65" style="edgeStyle=orthogonalEdgeStyle;rounded=0;orthogonalLoop=1;jettySize=auto;html=1;exitX=1;exitY=0.5;exitDx=0;exitDy=0;entryX=0;entryY=0.5;entryDx=0;entryDy=0;strokeWidth=2;" edge="1" parent="1" source="hCSqvV3AbPPHzn8vGVyA-56" target="hCSqvV3AbPPHzn8vGVyA-62">
          <mxGeometry relative="1" as="geometry" />
        </mxCell>
        <mxCell id="hCSqvV3AbPPHzn8vGVyA-66" style="edgeStyle=orthogonalEdgeStyle;rounded=0;orthogonalLoop=1;jettySize=auto;html=1;exitX=1;exitY=0.5;exitDx=0;exitDy=0;strokeWidth=2;" edge="1" parent="1" source="hCSqvV3AbPPHzn8vGVyA-56">
          <mxGeometry relative="1" as="geometry">
            <mxPoint x="580" y="90" as="targetPoint" />
          </mxGeometry>
        </mxCell>
        <mxCell id="hCSqvV3AbPPHzn8vGVyA-56" value="&lt;b&gt;Methods&lt;/b&gt;" style="rounded=0;whiteSpace=wrap;html=1;" vertex="1" parent="1">
          <mxGeometry x="190" y="160" width="140" height="60" as="geometry" />
        </mxCell>
        <mxCell id="hCSqvV3AbPPHzn8vGVyA-62" value="&lt;b&gt;Current Node Index&lt;/b&gt;" style="rounded=0;whiteSpace=wrap;html=1;" vertex="1" parent="1">
          <mxGeometry x="600" y="290" width="140" height="60" as="geometry" />
        </mxCell>
        <mxCell id="hCSqvV3AbPPHzn8vGVyA-69" value="" style="outlineConnect=0;dashed=0;verticalLabelPosition=bottom;verticalAlign=top;align=center;html=1;shape=mxgraph.aws3.lambda_function;fillColor=#F58534;gradientColor=none;" vertex="1" parent="1">
          <mxGeometry x="100" y="340" width="29" height="32" as="geometry" />
        </mxCell>
      </root>
    </mxGraphModel>
  </diagram>
</mxfile>
